<svg width="211" height="48" fill="none" xmlns="http://www.w3.org/2000/svg"><path d="M0 24.915l2.39-1.79L19.898 46.21 17.508 48 0 24.915zM9.977 1.831L12.336 0l18.022 22.92L28 24.751 9.977 1.831z" fill="#fff"/><path d="M1.884 27.308L0 24.997 19.371 9.411l1.884 2.311L1.884 27.308zm8.979 11.274l-1.884-2.31L28.35 20.684l1.884 2.311-19.371 15.586z" fill="#fff"/><path d="M54.445 6.815v33.83h-4.443V6.815h4.443zm10.944 0v3.671H39.082v-3.67H65.39zm.911 21.539v-.535c0-1.812.266-3.493.796-5.041.53-1.565 1.294-2.92 2.292-4.066a10.217 10.217 0 013.624-2.696c1.419-.65 3.009-.976 4.77-.976 1.778 0 3.375.326 4.794.976a10.166 10.166 0 013.648 2.696c1.013 1.146 1.785 2.501 2.315 4.066.53 1.548.795 3.23.795 5.041v.535c0 1.812-.265 3.493-.795 5.042s-1.302 2.904-2.315 4.066a10.598 10.598 0 01-3.625 2.695c-1.403.635-2.993.952-4.77.952-1.777 0-3.375-.317-4.793-.952a10.84 10.84 0 01-3.648-2.695c-.998-1.162-1.762-2.517-2.292-4.066-.53-1.55-.795-3.23-.795-5.042zm4.327-.535v.535c0 1.254.148 2.44.444 3.555.296 1.1.74 2.075 1.333 2.927a6.731 6.731 0 002.268 2.022c.904.48 1.957.72 3.157.72 1.185 0 2.222-.24 3.11-.72a6.513 6.513 0 002.245-2.022c.592-.852 1.037-1.828 1.333-2.927.312-1.116.468-2.3.468-3.555v-.535c0-1.239-.156-2.408-.468-3.508-.296-1.115-.748-2.099-1.356-2.95a6.43 6.43 0 00-2.245-2.045c-.889-.496-1.933-.744-3.134-.744-1.184 0-2.229.248-3.133.744a6.713 6.713 0 00-2.245 2.044c-.592.852-1.037 1.836-1.333 2.951a13.44 13.44 0 00-.444 3.508zm39.612 7.017v-19.33h4.35v25.139h-4.139l-.211-5.809zm.819-5.297l1.8-.047c0 1.673-.179 3.222-.538 4.647-.343 1.41-.904 2.633-1.683 3.671-.78 1.038-1.801 1.851-3.064 2.44-1.262.573-2.798.86-4.606.86-1.232 0-2.362-.179-3.39-.535a6.782 6.782 0 01-2.62-1.65c-.733-.743-1.302-1.711-1.707-2.904-.39-1.193-.585-2.625-.585-4.298V15.505h4.326V31.77c0 1.13.125 2.068.375 2.812.265.728.615 1.308 1.052 1.742.452.418.951.713 1.496.883.562.17 1.138.256 1.731.256 1.839 0 3.297-.349 4.373-1.046a5.97 5.97 0 002.315-2.858c.483-1.208.725-2.548.725-4.02zm14.451-8.667v19.773h-4.326v-25.14h4.092l.234 5.367zm-1.029 6.25l-1.801-.07c.016-1.719.273-3.306.772-4.762.499-1.472 1.2-2.75 2.105-3.834a9.364 9.364 0 013.226-2.51c1.263-.604 2.658-.906 4.186-.906 1.247 0 2.37.17 3.367.512a6.104 6.104 0 012.549 1.58c.717.727 1.263 1.672 1.637 2.834.374 1.146.561 2.548.561 4.206v16.473h-4.349v-16.52c0-1.317-.195-2.37-.585-3.16-.389-.805-.958-1.386-1.707-1.742-.748-.372-1.668-.558-2.759-.558-1.076 0-2.058.225-2.946.674a7.05 7.05 0 00-2.269 1.859 9.357 9.357 0 00-1.473 2.718 9.875 9.875 0 00-.514 3.206zm33.298 10.456a6.52 6.52 0 002.853-.628 5.88 5.88 0 002.152-1.719 4.77 4.77 0 00.958-2.532h4.116c-.078 1.487-.585 2.873-1.52 4.159-.92 1.27-2.128 2.3-3.625 3.09-1.496.774-3.141 1.161-4.934 1.161-1.901 0-3.562-.333-4.98-.999-1.403-.666-2.573-1.58-3.508-2.741-.92-1.162-1.613-2.494-2.081-3.997a16.767 16.767 0 01-.678-4.81v-.975c0-1.688.226-3.284.678-4.786.468-1.518 1.161-2.858 2.081-4.02.935-1.162 2.105-2.075 3.508-2.741 1.418-.667 3.079-1 4.98-1 1.98 0 3.711.403 5.192 1.209 1.481.79 2.642 1.874 3.484 3.252.857 1.363 1.325 2.912 1.403 4.647h-4.116c-.078-1.038-.374-1.975-.888-2.811a5.526 5.526 0 00-2.058-1.998c-.857-.511-1.863-.767-3.017-.767-1.325 0-2.439.263-3.343.79a5.839 5.839 0 00-2.128 2.091 9.714 9.714 0 00-1.123 2.904 15.893 15.893 0 00-.327 3.23v.976c0 1.1.109 2.184.327 3.253a9.295 9.295 0 001.099 2.904 6.1 6.1 0 002.128 2.091c.904.511 2.027.767 3.367.767zm29.862-1.232V23.405c0-.992-.203-1.851-.608-2.58-.39-.743-.983-1.316-1.778-1.719-.795-.402-1.777-.604-2.946-.604-1.091 0-2.05.186-2.876.558-.811.372-1.45.86-1.918 1.464-.452.604-.678 1.254-.678 1.951h-4.326c0-.898.234-1.789.702-2.672.467-.882 1.138-1.68 2.011-2.393.888-.728 1.948-1.3 3.18-1.719 1.247-.434 2.635-.65 4.162-.65 1.84 0 3.461.31 4.864.929 1.419.62 2.526 1.556 3.321 2.811.81 1.24 1.216 2.796 1.216 4.67v11.71c0 .837.07 1.727.21 2.672.156.945.382 1.759.678 2.44v.372h-4.513c-.218-.496-.39-1.154-.514-1.975a15.788 15.788 0 01-.187-2.324zm.748-10.943l.047 3.02h-4.373c-1.232 0-2.331.101-3.297.303-.967.185-1.777.472-2.432.86-.655.386-1.154.874-1.497 1.463-.343.573-.514 1.247-.514 2.021 0 .79.179 1.51.538 2.161.358.65.896 1.17 1.613 1.557.733.372 1.629.558 2.689.558 1.325 0 2.495-.28 3.508-.837 1.013-.558 1.816-1.24 2.408-2.045.608-.805.936-1.587.982-2.346l1.848 2.068c-.109.65-.406 1.37-.889 2.16s-1.13 1.55-1.941 2.277c-.795.713-1.746 1.31-2.852 1.79-1.092.464-2.323.696-3.695.696-1.715 0-3.219-.333-4.513-.999-1.279-.666-2.276-1.556-2.993-2.672-.702-1.13-1.053-2.393-1.053-3.787 0-1.347.265-2.532.795-3.555a6.875 6.875 0 012.292-2.579c.998-.697 2.198-1.223 3.601-1.58 1.403-.356 2.97-.534 4.7-.534h5.028zm14.708-5.948v21.19h-4.326v-25.14h4.209l.117 3.95zm7.904-4.09l-.023 3.997a6.306 6.306 0 00-1.029-.14 11.013 11.013 0 00-1.076-.046c-.998 0-1.878.155-2.642.465a5.475 5.475 0 00-1.941 1.301 6.259 6.259 0 00-1.263 1.998 9.539 9.539 0 00-.584 2.51l-1.216.697c0-1.518.148-2.944.444-4.276.312-1.332.787-2.509 1.426-3.531.639-1.038 1.45-1.844 2.432-2.417.998-.588 2.183-.883 3.555-.883.311 0 .67.04 1.075.117.406.062.686.131.842.209z" fill="#003DA5"/></svg>