<svg width="28" height="25" fill="none" xmlns="http://www.w3.org/2000/svg"><path d="M27.158.387A1.59 1.59 0 0025.534.11L1.011 9.745a1.594 1.594 0 00.27 3.048l6.657 1.33v8.217a1.57 1.57 0 00.984 1.473 1.57 1.57 0 001.738-.346l3.8-3.8 5.606 4.934a1.58 1.58 0 001.543.32 1.581 1.581 0 001.064-1.16l4.998-21.81a1.592 1.592 0 00-.513-1.564zM1.065 11.276a.514.514 0 01.335-.542l22.48-8.83L8.345 13.12l-6.856-1.37a.514.514 0 01-.425-.475zm8.843 11.44a.532.532 0 01-.907-.376v-7.476l4.659 4.1-3.752 3.752zM26.635 1.714l-4.998 21.809a.531.531 0 01-.869.28L9.321 13.73 26.549 1.286a.505.505 0 01.086.428z" fill="#fff"/></svg>