<svg width="27" height="1031" fill="none" xmlns="http://www.w3.org/2000/svg"><path d="M2 12C2 5.373 7.373 0 14 0s12 5.373 12 12-5.373 12-12 12S2 18.627 2 12z" fill="#000"/><path d="M13 25h2v100h-2V25z" fill="#1F5BFF"/><path d="M2 138c0-6.627 5.373-12 12-12s12 5.373 12 12-5.373 12-12 12-12-5.373-12-12z" fill="#000"/><path d="M13 151h2v100h-2V151z" fill="#1F5BFF"/><path d="M2 264c0-6.627 5.373-12 12-12s12 5.373 12 12-5.373 12-12 12-12-5.373-12-12z" fill="#000"/><path d="M13 277h2v100h-2V277z" fill="#1F5BFF"/><path d="M2 390c0-6.627 5.373-12 12-12s12 5.373 12 12-5.373 12-12 12-12-5.373-12-12z" fill="#000"/><path d="M13 403h2v100h-2V403z" fill="#1F5BFF"/><path d="M1 516c0-6.627 5.373-12 12-12s12 5.373 12 12-5.373 12-12 12-12-5.373-12-12z" fill="#000"/><path d="M12 529h2v100h-2V529z" fill="#1F5BFF"/><path d="M3 642c0-6.627 5.373-12 12-12s12 5.373 12 12-5.373 12-12 12-12-5.373-12-12z" fill="#000"/><path d="M14 655h2v100h-2V655z" fill="#1F5BFF"/><path d="M0 768c0-6.627 5.373-12 12-12s12 5.373 12 12-5.373 12-12 12-12-5.373-12-12z" fill="#000"/><path d="M11 781h2v100h-2V781z" fill="#1F5BFF"/><path d="M2 894c0-6.627 5.373-12 12-12s12 5.373 12 12-5.373 12-12 12-12-5.373-12-12z" fill="#000"/><path d="M13 907h2v100h-2V907z" fill="#1F5BFF"/><path d="M2 1019c0-6.63 5.373-12 12-12s12 5.37 12 12-5.373 12-12 12-12-5.37-12-12z" fill="#000"/></svg>